<?xml version="1.0" encoding="UTF-8" standalone="no"?>
<!-- Created with Inkscape (http://www.inkscape.org/) -->

<svg
   xmlns:dc="http://purl.org/dc/elements/1.1/"
   xmlns:cc="http://creativecommons.org/ns#"
   xmlns:rdf="http://www.w3.org/1999/02/22-rdf-syntax-ns#"
   xmlns:svg="http://www.w3.org/2000/svg"
   xmlns="http://www.w3.org/2000/svg"
   xmlns:sodipodi="http://sodipodi.sourceforge.net/DTD/sodipodi-0.dtd"
   xmlns:inkscape="http://www.inkscape.org/namespaces/inkscape"
   width="35.304379mm"
   height="12.506823mm"
   viewBox="0 0 125.09425 44.315513"
   id="svg2"
   version="1.1"
   inkscape:version="0.91 r13725"
   sodipodi:docname="logo.svg"
   inkscape:export-filename="C:\Users\willi_000\git\coldwar\coldwar\assets\logo.png"
   inkscape:export-xdpi="400.01917"
   inkscape:export-ydpi="400.01917">
  <defs
     id="defs4" />
  <sodipodi:namedview
     id="base"
     pagecolor="#ffffff"
     bordercolor="#666666"
     borderopacity="1.0"
     inkscape:pageopacity="0.0"
     inkscape:pageshadow="2"
     inkscape:zoom="7.9195959"
     inkscape:cx="35.371203"
     inkscape:cy="14.16738"
     inkscape:document-units="px"
     inkscape:current-layer="layer1"
     showgrid="false"
     fit-margin-top="0"
     fit-margin-left="0"
     fit-margin-right="0"
     fit-margin-bottom="0"
     inkscape:window-width="1920"
     inkscape:window-height="1017"
     inkscape:window-x="-8"
     inkscape:window-y="64"
     inkscape:window-maximized="1" />
  <metadata
     id="metadata7">
    <rdf:RDF>
      <cc:Work
         rdf:about="">
        <dc:format>image/svg+xml</dc:format>
        <dc:type
           rdf:resource="http://purl.org/dc/dcmitype/StillImage" />
        <dc:title></dc:title>
      </cc:Work>
    </rdf:RDF>
  </metadata>
  <g
     inkscape:label="Layer 1"
     inkscape:groupmode="layer"
     id="layer1"
     transform="translate(-100.34347,-200.64239)">
    <path
       inkscape:connector-curvature="0"
       id="path3411"
       style="font-style:normal;font-variant:normal;font-weight:normal;font-stretch:normal;font-size:60px;line-height:125%;font-family:GungsuhChe;-inkscape-font-specification:GungsuhChe;letter-spacing:0px;word-spacing:0px;fill:#000000;fill-opacity:1;stroke:none;stroke-width:1px;stroke-linecap:butt;stroke-linejoin:miter;stroke-opacity:1"
       d="m 104.26925,237.1156 c 0,1.25 -0.19531,2.05078 -0.58594,2.40234 -0.3125,0.3125 -0.85937,0.42969 -1.64062,0.35156 -0.54687,-0.11719 -0.95703,0.0977 -1.23047,0.64453 -0.27344,0.50781 -0.41016,1.13281 -0.41016,1.875 0,0.74219 0.13672,1.34766 0.41016,1.81641 0.27344,0.54687 0.6836,0.78125 1.23047,0.70312 2.03125,-0.15625 4.37778,-0.0558 6.68247,-0.0558 2.77344,-0.0391 5.19253,-0.13951 7.6144,0.0558 3.75,0 6.67969,-1.07422 8.78906,-3.22265 2.14844,-2.14844 3.22266,-5.13672 3.22266,-8.96485 0,-2.96875 -0.60547,-5.33203 -1.81641,-7.08984 -1.09375,-1.60156 -2.77343,-2.73437 -5.03906,-3.39844 1.60157,-0.70312 2.77344,-1.69921 3.51563,-2.98828 0.85937,-1.44531 1.28906,-3.53516 1.28906,-6.26953 0,-3.47656 -1.01563,-6.23047 -3.04688,-8.26172 -1.99219,-1.95313 -4.70703,-2.92969 -8.14453,-2.92969 -2.03125,0.15625 -4.45312,0.21485 -7.26562,0.17579 -2.46094,0 -4.39453,-0.0586 -5.80078,-0.17579 -0.54687,-0.0781 -0.97656,0.13673 -1.28906,0.64454 -0.27344,0.46875 -0.41016,1.07421 -0.41016,1.8164 0,0.70313 0.13672,1.3086 0.41016,1.81641 0.3125,0.54687 0.74219,0.80078 1.28906,0.76172 0.89844,0 1.46485,0.0977 1.69922,0.29297 0.35156,0.27343 0.52734,0.85937 0.52734,1.75781 z m 5.39062,-11.95313 3.57422,0 c 3.35938,0 5.82032,0.64453 7.38282,1.93359 1.40625,1.21094 2.10937,3.02735 2.10937,5.44922 0,2.5 -0.83984,4.41406 -2.51953,5.74219 -1.28906,1.05469 -2.63672,1.58203 -4.04297,1.58203 l -6.50391,0 z m 0,-18.33984 5.21485,0 c 1.71875,0 3.0664,0.44922 4.04297,1.34765 1.17187,1.05469 1.75781,2.69531 1.75781,4.92188 0,2.10937 -0.54688,3.80859 -1.64063,5.09765 -1.05469,1.28907 -2.48047,1.9336 -4.27734,1.9336 l -5.09766,0 z"
       sodipodi:nodetypes="scccscccccscccscccccscccsscscscscccscscscc" />
    <path
       inkscape:connector-curvature="0"
       id="path3413"
       style="font-style:normal;font-variant:normal;font-weight:normal;font-stretch:normal;font-size:60px;line-height:125%;font-family:GungsuhChe;-inkscape-font-specification:GungsuhChe;letter-spacing:0px;word-spacing:0px;fill:#000000;fill-opacity:1;stroke:none;stroke-width:1px;stroke-linecap:butt;stroke-linejoin:miter;stroke-opacity:1"
       d="m 130.6881,220.65075 0,18.22266 c 0,0.70313 -0.17578,1.11328 -0.52734,1.23047 -0.19531,0.0781 -0.625,0.0195 -1.28907,-0.17578 l -0.41015,-0.11719 c -0.70313,-0.15625 -1.25,0.0391 -1.64063,0.58594 -0.35156,0.50781 -0.52734,1.15234 -0.52734,1.93359 0,0.78125 0.17578,1.42578 0.52734,1.93359 0.39063,0.54688 0.9375,0.74219 1.64063,0.58594 1.17187,-0.11719 3.39844,-0.17578 6.67969,-0.17578 3.24219,0 5.64453,0.0586 7.20703,0.17578 0.9375,0.15625 1.69922,-0.0391 2.28515,-0.58594 0.50781,-0.50781 0.76172,-1.15234 0.76172,-1.93359 0,-0.78125 -0.25391,-1.42578 -0.76172,-1.93359 -0.58593,-0.54688 -1.34765,-0.74219 -2.28515,-0.58594 -1.79688,0.27343 -3.1836,0.39062 -4.16016,0.35156 -1.40625,-0.0781 -2.10937,-0.50781 -2.10937,-1.28906 l 0,-13.53516 c 1.44531,-2.34375 1.69363,-3.03292 3.33426,-4.47823 1.60156,-1.32813 2.96875,-1.99219 4.10156,-1.99219 0.97656,0 1.67969,0.29297 2.10938,0.87891 0.46874,0.66406 0.72265,1.91406 0.76172,3.75 0,0.78124 0.3125,1.40624 0.9375,1.875 0.54687,0.42968 1.21093,0.62499 1.99219,0.58593 0.78124,-0.0391 1.42577,-0.31251 1.93359,-0.82031 0.58594,-0.54688 0.87891,-1.25 0.87891,-2.10937 -0.0391,-2.77344 -0.82032,-5.01954 -2.34375,-6.73828 -1.44532,-1.64063 -3.22266,-2.46094 -5.33204,-2.46094 -1.64062,0 -3.10547,0.27343 -4.39453,0.82031 -1.09375,0.46875 -0.79441,0.28969 -1.75439,1.00542 l -0.99394,0.8361 c -0.54687,0.625 -0.8789,0.83984 -0.99609,0.64453 -0.15625,-0.3125 -0.23437,-1.44531 -0.23437,-3.39844 -1.67969,0.11719 -3.22266,0.17578 -4.62891,0.17578 -1.40625,0 -2.40235,-0.0586 -2.98828,-0.17578 -0.70313,-0.15625 -1.25,0.0586 -1.64063,0.64453 -0.35156,0.50781 -0.52734,1.15234 -0.52734,1.93359 0,0.78125 0.17578,1.40625 0.52734,1.875 0.39063,0.54688 0.9375,0.72266 1.64063,0.52735 l 0.17578,-0.0586 c 0.74219,-0.0391 1.23047,0.0195 1.46484,0.17579 0.39063,0.27343 0.58594,0.8789 0.58594,1.8164 z"
       sodipodi:nodetypes="ssccccsccsccscccsccscccscccscccccsccsccccs" />
    <path
       inkscape:connector-curvature="0"
       id="path3415"
       style="font-style:normal;font-variant:normal;font-weight:normal;font-stretch:normal;font-size:60px;line-height:125%;font-family:GungsuhChe;-inkscape-font-specification:GungsuhChe;letter-spacing:0px;word-spacing:0px;fill:#000000;fill-opacity:1;stroke:none;stroke-width:1px;stroke-linecap:butt;stroke-linejoin:miter;stroke-opacity:1"
       d="m 160.08172,200.64239 c -1.25,0 -2.22656,0.41015 -2.92969,1.23046 -0.625,0.74219 -0.9375,1.66016 -0.9375,2.75391 0,1.01563 0.3125,1.89453 0.9375,2.63672 0.70313,0.85937 1.67969,1.28906 2.92969,1.28906 1.21093,0 2.16796,-0.42969 2.87109,-1.28906 0.66406,-0.74219 0.99609,-1.62109 0.99609,-2.63672 0,-1.09375 -0.33203,-2.01172 -0.99609,-2.75391 -0.70313,-0.82031 -1.66016,-1.23046 -2.87109,-1.23046 z m -1.69922,18.86718 0,19.10157 c 0,0.85937 -0.64453,1.34765 -1.9336,1.46484 -0.78125,0.0781 -2.32421,0.0195 -4.6289,-0.17578 l -0.9961,-0.0586 c -0.74219,-0.11719 -1.32812,0.0977 -1.75781,0.64454 -0.35156,0.50781 -0.52734,1.13281 -0.52734,1.875 0,0.74219 0.17578,1.34765 0.52734,1.8164 0.42969,0.54687 1.01562,0.78125 1.75781,0.70313 2.69531,-0.0781 5.72266,-0.11719 9.08203,-0.11719 3.39844,0 1.54018,0.0391 5.09487,0.11719 0.85937,0.0781 0.91797,-0.0558 1.21372,-0.29018 0.46875,-0.50781 0.93751,-1.15513 0.93751,-1.89732 0,-0.78125 -1e-5,-1.62947 -0.46876,-2.09822 -0.50781,-0.50781 -0.86774,-0.68359 -1.48158,-0.58314 -1.05469,0.1116 -0.83021,0.32437 -1.16503,0.21834 -0.38505,-0.22879 -0.26354,-0.68151 -0.26354,-1.61901 l 0,-25.01954 c -1.91406,0.19531 -3.86718,0.27344 -5.85937,0.23438 -1.91407,0 -3.55469,-0.0781 -4.92188,-0.23438 -0.74219,-0.11719 -1.32812,0.0977 -1.75781,0.64454 -0.39063,0.46875 -0.58594,1.09375 -0.58594,1.875 0,0.74219 0.19531,1.34765 0.58594,1.8164 0.42969,0.54687 1.01562,0.78125 1.75781,0.70313 l 0.35156,-0.0586 c 1.67969,-0.0781 2.83204,-0.0781 3.45704,0 1.05469,0.11719 1.58203,0.42969 1.58203,0.9375 z"
       sodipodi:nodetypes="scscscscsssccccsccsccssccsccccsccccs" />
    <path
       inkscape:connector-curvature="0"
       id="path3417"
       style="font-style:normal;font-variant:normal;font-weight:normal;font-stretch:normal;font-size:60px;line-height:125%;font-family:GungsuhChe;-inkscape-font-specification:GungsuhChe;letter-spacing:0px;word-spacing:0px;fill:#000000;fill-opacity:1;stroke:none;stroke-width:1px;stroke-linecap:butt;stroke-linejoin:miter;stroke-opacity:1"
       d="m 170.23198,220.59216 0,18.51562 q 0,0.70313 -0.23437,0.82032 -0.23438,0.11718 -1.17188,-0.0586 l -0.29297,0 q -0.64453,-0.23437 -0.99609,0.58594 -0.29297,0.70312 -0.29297,1.81641 0,1.17187 0.29297,1.875 0.35156,0.8789 0.99609,0.76171 2.51953,-0.17578 4.62891,-0.17578 2.10937,0 3.86719,0.17578 0.82031,0.17579 1.34765,-0.70312 0.41016,-0.70313 0.41016,-1.875 0,-1.17188 -0.41016,-1.875 -0.52734,-0.82031 -1.34765,-0.58594 -0.9961,0.29297 -1.23047,0.17578 -0.17578,-0.11718 -0.17578,-0.9375 l 0,-17.8125 q 1.58203,-1.875 2.92968,-2.69531 1.875,-1.05469 4.27735,-1.05469 1.8164,0 2.8125,0.9961 1.11328,1.17187 1.11328,3.6914 l 0,16.875 q 0,0.70313 -0.17578,0.82032 -0.11719,0.0586 -0.64453,0 l -0.29297,-0.0586 q -1.05469,-0.29297 -1.64063,0.58594 -0.52734,0.70312 -0.46875,1.93359 0,1.17188 0.52735,1.875 0.58593,0.87891 1.58203,0.64453 3.33984,-0.17578 4.98047,-0.17578 1.64062,0 3.80859,0.17578 0.87891,0.17579 1.40625,-0.64453 0.46875,-0.76172 0.46875,-1.93359 0,-1.17188 -0.46875,-1.93359 -0.52734,-0.82032 -1.40625,-0.52735 -1.11328,0.35156 -1.69922,0.17578 -0.58594,-0.17578 -0.58594,-0.9375 l 0,-18.22265 q 0,-4.16016 -2.69531,-6.44532 -2.28516,-1.93359 -5.68359,-1.93359 -2.46094,0 -4.16016,0.70313 -0.99609,0.41015 -2.28516,1.40625 l -0.41015,0.35156 -0.11719,0.0586 q -0.64453,0.41016 -0.87891,0.29297 -0.41015,-0.17578 -0.23437,-1.58203 -2.22656,0.17578 -4.33594,0.17578 -1.93359,0 -2.8125,-0.17578 -0.64453,-0.23438 -0.99609,0.52734 -0.29297,0.70313 -0.29297,1.875 0,1.11328 0.29297,1.875 0.35156,0.82032 0.99609,0.76172 1.11328,-0.17578 1.40625,0.11719 0.29297,0.29297 0.29297,1.69922 z" />
    <path
       inkscape:connector-curvature="0"
       id="path3419"
       style="font-style:normal;font-variant:normal;font-weight:normal;font-stretch:normal;font-size:60px;line-height:125%;font-family:GungsuhChe;-inkscape-font-specification:GungsuhChe;letter-spacing:0px;word-spacing:0px;fill:#000000;fill-opacity:1;stroke:none;stroke-width:1px;stroke-linecap:butt;stroke-linejoin:miter;stroke-opacity:1"
       d="m 200.24241,208.11169 0,31.05469 q 0,0.70312 -0.58594,0.82031 -0.46875,0.0586 -1.58203,-0.23438 -0.82031,-0.17578 -1.23047,0.70313 -0.41015,0.70312 -0.41015,1.81641 0,1.11328 0.41015,1.875 0.41016,0.76171 1.23047,0.64453 1.81641,-0.11719 3.39844,-0.11719 1.58203,0 4.16015,0.11719 l 0,-11.66016 3.51563,-4.10156 4.74609,8.78906 q 0.52735,0.99609 0.35157,1.58203 -0.17579,0.52735 -1.05469,0.35156 -0.87891,-0.17578 -1.40625,0.64454 -0.52735,0.76171 -0.52735,1.8164 -0.0586,1.11328 0.46875,1.81641 0.58594,0.82031 1.64063,0.76172 2.34375,-0.17578 5.68359,-0.17578 2.63672,0.0586 4.57032,0.17578 0.82031,0.0586 1.34765,-0.82032 0.46875,-0.76171 0.46875,-1.8164 0,-1.11328 -0.46875,-1.81641 -0.52734,-0.76172 -1.34765,-0.58594 -1.52344,0.23438 -2.10938,0.11719 -0.76172,-0.17578 -1.23047,-0.9375 l -7.73437,-13.88672 5.85937,-6.91406 q 0.64453,-0.64453 1.46485,-0.82031 0.52734,-0.0586 1.23046,-0.0586 l 0.41016,0.0586 q 0.99609,0.0586 1.58203,-0.76172 0.52735,-0.76172 0.52735,-1.81641 0,-1.11328 -0.52735,-1.8164 -0.58594,-0.82032 -1.58203,-0.64453 -2.8125,0.29296 -5.03906,0.29296 -2.8125,0.0586 -5.39063,-0.29296 -0.82031,-0.23438 -1.28906,0.52734 -0.41016,0.70312 -0.41016,1.81641 0,1.11328 0.35157,1.875 0.35156,0.8789 0.99609,0.82031 0.9375,0 1.23047,0.23437 0.29297,0.17578 -0.17578,0.76172 l -6.15235,7.20703 0,-23.78906 q -1.875,0.29297 -3.45703,0.29297 -0.99609,0 -3.28125,-0.23438 l -0.82031,-0.0586 q -0.82031,-0.17578 -1.23047,0.64453 -0.41015,0.70313 -0.41015,1.81641 0,1.11328 0.41015,1.875 0.41016,0.82031 1.23047,0.70312 1.17188,-0.11718 1.58203,0.0586 0.58594,0.23437 0.58594,1.28906 z" />
  </g>
</svg>
